<?xml version="1.0" encoding="UTF-8"?>
<svg id="Capa_2" data-name="Capa 2" xmlns="http://www.w3.org/2000/svg" viewBox="0 0 27.47 9.16">
  <defs>
    <style>
      .cls-1 {
        fill: #212121;
      }
    </style>
  </defs>
  <g id="Capa_1-2" data-name="Capa 1">
    <g>
      <path class="cls-1" d="M.1,9.02v-.72l.67-.11V3.5l-.76-.22v-.83l2-.24,.11,.05,.21,.43v.52c.17-.18,.4-.34,.69-.49s.59-.27,.9-.36c.31-.09,.58-.14,.83-.14,.43,0,.78,.07,1.04,.22,.26,.15,.46,.37,.6,.67,.17-.16,.38-.3,.63-.44,.25-.14,.52-.25,.81-.33,.29-.08,.58-.13,.87-.13,.36,0,.67,.05,.92,.15,.25,.1,.45,.26,.61,.48,.15,.22,.27,.49,.34,.83,.07,.34,.1,.74,.1,1.21v3.32l.77,.11v.72h-3.11v-.72l.61-.11v-3.26c0-.4-.03-.73-.09-.98-.06-.25-.16-.43-.31-.54-.15-.11-.37-.17-.65-.17-.16,0-.32,.03-.49,.08-.16,.05-.32,.12-.46,.2s-.27,.16-.37,.24c.02,.11,.04,.22,.06,.34,.01,.12,.02,.25,.03,.38,0,.13,0,.27,0,.41v3.31l.74,.11v.72h-3.13v-.72l.66-.11v-3.31c0-.4-.03-.71-.08-.95-.05-.24-.15-.42-.29-.53-.14-.11-.36-.17-.64-.17s-.53,.06-.79,.19-.47,.26-.64,.4v4.37l.7,.11v.72H.1Z"/>
      <path class="cls-1" d="M11.93,5.71c0-.59,.09-1.1,.27-1.54,.18-.44,.42-.81,.73-1.1s.66-.51,1.06-.66c.4-.15,.81-.22,1.24-.22,.68,0,1.25,.14,1.72,.43,.47,.28,.83,.68,1.07,1.2,.25,.52,.37,1.12,.37,1.82,0,.6-.09,1.12-.27,1.56-.18,.44-.43,.81-.74,1.1s-.67,.51-1.06,.65-.81,.21-1.25,.21c-.5,0-.95-.08-1.34-.24-.39-.16-.72-.39-.99-.69-.27-.3-.47-.66-.61-1.09-.14-.43-.21-.9-.21-1.42Zm3.26,2.67c.3,0,.54-.09,.74-.28,.2-.19,.35-.47,.45-.86,.1-.39,.16-.88,.16-1.48,0-.44-.02-.83-.07-1.17-.05-.35-.13-.64-.23-.88-.11-.24-.25-.43-.42-.55s-.39-.19-.64-.19c-.3,0-.55,.09-.75,.28-.21,.19-.36,.47-.47,.86-.11,.39-.16,.88-.16,1.48,0,.44,.03,.83,.08,1.18,.05,.35,.13,.64,.25,.88,.11,.24,.26,.42,.44,.55,.18,.13,.39,.19,.65,.19Z"/>
      <path class="cls-1" d="M23.39,9.16c-.91,0-1.65-.18-2.24-.56-.58-.38-1.02-.92-1.3-1.61-.28-.69-.42-1.49-.42-2.39,0-.7,.1-1.33,.3-1.9,.2-.57,.48-1.05,.84-1.45,.36-.4,.8-.71,1.3-.92,.5-.21,1.06-.32,1.67-.32,.9,0,1.65,.19,2.23,.55,.58,.36,1.01,.88,1.29,1.54,.28,.66,.42,1.44,.42,2.34,0,.7-.1,1.34-.29,1.91-.2,.58-.48,1.07-.84,1.49-.36,.42-.79,.74-1.29,.97-.5,.23-1.05,.34-1.66,.35Zm.05-.73c.42,0,.79-.15,1.1-.45,.31-.3,.55-.75,.72-1.34,.17-.59,.25-1.32,.25-2.19s-.08-1.55-.24-2.1c-.16-.55-.39-.95-.7-1.22s-.67-.4-1.11-.4-.79,.14-1.1,.42c-.31,.28-.55,.71-.72,1.27-.17,.57-.26,1.29-.26,2.16s.08,1.55,.24,2.12,.4,1,.7,1.28c.31,.29,.67,.43,1.1,.43Z"/>
    </g>
  </g>
</svg>